PathFileType	4	(X/Y/Z)	TVC_26_BWA6_walk_RCNL2025.trc
DataRate	CameraRate	NumFrames	NumMarkers	Units	OrigDataRate	OrigDataStartFrame	OrigNumFrames
100	100	9	27	mm	100	295	588
Frame#	Time	R_Shoulder			L_Shoulder			C7			J_Notch			R_Elbow			L_Elbow			R_Wrist			L_Wrist			R_Asis			L_Asis			R_Psis			L_Psis			Sacral			Thoracic			Sternum			R_Thigh_Lateral			R_Knee_Lateral			R_Shank_Lateral			R_Ankle_Lateral			R_Heel			R_Toe			L_Thigh_Lateral			L_Knee_Lateral			L_Shank_Lateral			L_Ankle_Lateral			L_Heel			L_Toe		
		X1	Y1	Z1	X2	Y2	Z2	X3	Y3	Z3	X4	Y4	Z4	X5	Y5	Z5	X6	Y6	Z6	X7	Y7	Z7	X8	Y8	Z8	X9	Y9	Z9	X10	Y10	Z10	X11	Y11	Z11	X12	Y12	Z12	X13	Y13	Z13	X14	Y14	Z14	X15	Y15	Z15	X16	Y16	Z16	X17	Y17	Z17	X18	Y18	Z18	X19	Y19	Z19	X20	Y20	Z20	X21	Y21	Z21	X22	Y22	Z22	X23	Y23	Z23	X24	Y24	Z24	X25	Y25	Z25	X26	Y26	Z26	X27	Y27	Z27
295	2.94000000	520.416138	1348.112061	109.086243	529.390015	1355.358887	-213.275116	446.357513	1384.797974	-48.144909	600.192322	1299.181641	-41.366257	488.765625	1005.961670	220.241592	521.744507	1026.915771	-315.267334	527.818466	798.990295	270.600266	636.581146	840.369446	-253.330482	610.662964	948.050781	123.344940	645.408203	949.108215	-167.888657	411.571808	929.698730	27.575644	432.599243	928.579346	-117.433296	422.085526	929.139038	-44.928826	405.088501	1100.437866	-58.122501	667.836243	1065.525513	-42.276398	703.825562	584.375549	167.006561	775.151794	481.512177	109.426582	765.244141	300.713837	153.253326	777.278320	97.514442	87.477615	736.688904	72.675514	35.168125	914.606628	86.459450	74.729889	647.175232	569.914368	-188.717667	609.510376	451.690155	-114.320641	538.795837	238.859955	-136.560822	462.024689	65.600220	-48.082176	414.209045	57.898663	6.494938	596.845764	40.950970	-34.496174
296	2.95000000	524.603638	1347.464600	109.367088	533.787903	1355.108032	-212.989197	450.634918	1384.452759	-47.857368	604.461670	1298.691040	-41.089653	492.662964	1005.255188	220.177338	526.260071	1026.672119	-315.180542	531.504288	798.180511	270.339249	641.253174	840.355835	-252.772789	614.824646	947.442322	123.139610	649.429260	948.564941	-168.035919	415.606201	929.398010	27.569069	436.618774	928.349121	-117.472984	426.112488	928.873566	-44.951958	409.301392	1100.071533	-58.207870	672.014099	1065.019287	-42.388126	704.489014	582.126221	166.271164	776.539551	479.579132	108.910233	766.268738	298.982117	152.758163	777.455261	95.746887	86.966331	736.747314	71.070450	34.642235	914.628052	84.094536	74.255371	649.455505	569.169312	-188.674210	611.276489	451.139069	-114.265923	539.445129	238.668213	-136.547287	462.092133	65.640991	-48.049107	414.286530	58.080032	6.508954	596.861816	40.939556	-34.526321
297	2.96000000	528.850952	1346.811523	109.667679	538.253296	1354.818604	-212.681168	454.982758	1384.078003	-47.550358	608.804565	1298.180054	-40.782368	496.649994	1004.531128	220.132812	530.825256	1026.405029	-315.103973	535.284927	797.347046	270.091614	646.039734	840.319366	-252.224335	618.974060	946.810852	123.048592	653.534973	948.025452	-168.142715	419.709991	929.085083	27.585012	440.728058	928.100769	-117.489845	430.219025	928.592926	-44.952416	413.587463	1099.671753	-58.240574	676.270508	1064.491455	-42.442074	705.049805	579.863098	165.464859	778.046814	477.646027	108.391243	767.209534	297.210724	152.324722	777.301086	93.929832	86.556694	736.435364	69.428711	34.220047	914.299194	81.547623	73.854507	651.711426	568.414978	-188.627228	613.051819	450.588593	-114.198914	540.114319	238.473953	-136.505493	462.158264	65.688477	-48.016529	414.367126	58.276661	6.513758	596.872314	40.930813	-34.564808
298	2.97000000	533.160400	1346.153931	109.990517	542.791199	1354.498291	-212.350647	459.397430	1383.665771	-47.225006	613.216797	1297.651489	-40.445747	500.727417	1003.790955	220.107269	535.439270	1026.124023	-315.038696	539.160828	796.490875	269.860840	650.957031	840.266479	-251.677025	623.104248	946.159546	123.083855	657.730286	947.483215	-168.196838	423.883087	928.761963	27.617384	444.932617	927.826294	-117.486679	434.407852	928.294128	-44.934648	417.942719	1099.247437	-58.220913	680.601074	1063.939575	-42.425129	705.683289	577.666077	164.655350	779.644653	475.700623	107.889442	768.033630	295.380341	151.950912	776.811584	92.042892	86.220741	735.772522	67.740013	33.877594	913.647156	78.830124	73.495956	654.002197	567.660461	-188.568237	614.863525	450.031494	-114.111931	540.847229	238.274765	-136.433548	462.225311	65.748329	-47.986591	414.452393	58.494293	6.510934	596.878296	40.925720	-34.612446
299	2.98000000	537.532654	1345.491577	110.337616	547.403931	1354.153687	-211.997940	463.873199	1383.211914	-46.882832	617.691467	1297.108887	-40.083664	504.896667	1003.038391	220.099777	540.102234	1025.836304	-314.985992	543.130981	795.617676	269.648674	656.016754	840.207184	-251.123375	627.223328	945.498291	123.257484	662.019897	946.929810	-168.185349	428.124725	928.423340	27.660595	449.237549	927.515869	-117.464142	438.681137	927.969604	-44.901773	422.364532	1098.810547	-58.153397	685.000000	1063.363159	-42.326794	706.439636	575.551086	163.887680	781.272827	473.722321	107.422379	768.698242	293.470825	151.629349	776.007507	90.066063	85.925034	734.805237	65.992249	33.593243	912.723999	75.957787	73.148621	656.383301	566.915771	-188.483215	616.741272	449.460358	-113.998650	541.677917	238.071655	-136.337265	462.295715	65.826622	-47.961578	414.543121	58.737667	6.502371	596.880615	40.925915	-34.671886
300	2.99000000	541.966614	1344.825073	110.708611	552.089111	1353.788452	-211.623825	468.402496	1382.716187	-46.525574	622.220886	1296.555664	-39.701145	509.161957	1002.278809	220.109299	544.814087	1025.542480	-314.944275	547.198456	794.736267	269.457222	661.203217	840.141998	-250.568542	631.349609	944.842346	123.576332	666.408569	946.355103	-168.096390	432.433838	928.060486	27.709738	453.646881	927.159302	-117.421707	443.040359	927.609894	-44.855985	426.850586	1098.370850	-58.046051	689.460266	1062.765015	-42.141098	707.279724	573.498535	163.190109	782.856018	471.693726	107.007446	769.159485	291.470886	151.347931	774.946716	87.993713	85.639557	733.608643	64.182404	33.346954	911.604675	72.951942	72.789879	658.898193	566.186462	-188.352753	618.715759	448.869019	-113.855247	542.624451	237.869415	-136.228043	462.371704	65.928726	-47.943192	414.639984	59.010002	6.490336	596.880249	40.933220	-34.747887
301	3.00000000	546.458618	1344.156860	111.100296	556.838989	1353.404053	-211.230072	472.976898	1382.183716	-46.156303	626.797607	1295.994995	-39.302608	513.530762	1001.518799	220.134659	549.575134	1025.239624	-314.911133	551.370819	793.857300	269.290245	666.458038	840.058990	-250.034454	635.505981	944.208923	124.038055	670.900269	945.747681	-167.920837	436.808014	927.667847	27.760420	458.161469	926.747559	-117.358658	447.484741	927.207703	-44.799119	431.396454	1097.931885	-57.909412	693.974731	1062.151001	-41.866577	708.121216	571.483704	162.583527	784.322266	469.612183	106.665833	769.385620	289.388275	151.092743	773.731384	85.848808	85.347382	732.285278	62.329422	33.119392	910.386230	69.843391	72.411285	661.580505	565.475525	-188.156235	620.816528	448.252533	-113.678917	543.686401	237.675903	-136.118118	462.455902	66.058998	-47.932690	414.744354	59.313309	6.477150	596.877991	40.948849	-34.846130
302	3.01000000	551.002808	1343.489868	111.507568	561.639771	1353.002075	-210.821182	477.587402	1381.625610	-45.780289	631.414001	1295.430542	-38.891937	518.011780	1000.765686	220.174789	554.387878	1024.926025	-314.885925	555.652557	792.992279	269.153618	671.702057	839.943359	-249.549782	639.717896	943.615112	124.629738	675.497559	945.095520	-167.652466	441.240997	927.249146	27.810246	462.777313	926.273254	-117.273941	452.009155	926.761200	-44.731848	435.995728	1097.491455	-57.755116	698.538940	1061.528809	-41.504913	708.881653	569.500427	162.089294	785.623779	467.501221	106.425461	769.374207	287.259125	150.852600	772.502808	83.689445	85.049294	730.960876	60.485497	32.895977	909.187073	66.676765	72.017937	664.460266	564.783081	-187.876068	623.068481	447.606995	-113.466057	544.848206	237.498917	-136.013824	462.552032	66.220955	-47.931019	414.858521	59.649284	6.464901	596.875427	40.972355	-34.971439
303	3.02000000	555.591736	1342.827271	111.924026	566.473877	1352.586548	-210.404434	482.223999	1381.057983	-45.403919	636.062683	1294.868530	-38.473896	522.607971	1000.026978	220.230484	559.256348	1024.603760	-314.868500	560.038971	792.152039	269.055138	676.875641	839.786774	-249.138184	644.010742	943.078186	125.326843	680.199707	944.387573	-167.287445	445.720306	926.819519	27.860712	467.485687	925.732971	-117.166130	456.602997	926.276245	-44.652709	440.641327	1097.045044	-57.595020	703.153198	1060.907715	-41.062149	709.516357	567.579590	161.733398	786.758423	465.420166	106.320961	769.172119	285.153534	150.623779	771.425842	81.606247	84.761406	729.777100	58.739334	32.674362	908.142639	63.514519	71.624481	667.560730	564.100586	-187.496597	625.489014	446.930847	-113.210999	546.086487	237.341049	-135.910568	462.664551	66.417694	-47.938374	414.985199	60.020775	6.455453	596.875854	41.001213	-35.125591
